<svg width="388" height="1356" xmlns="http://www.w3.org/2000/svg" xmlns:xlink="http://www.w3.org/1999/xlink" xml:space="preserve" overflow="hidden"><g transform="translate(-1030 -364)"><path d="M1052 378C1222.86 440.709 1393.72 503.419 1402.89 584.168 1412.06 664.916 1108.76 782.89 1107.04 862.494 1105.32 942.097 1357.02 1012.54 1392.57 1061.79 1428.12 1111.04 1374.22 1134.52 1320.33 1158" stroke="#000000" stroke-width="27.5" stroke-miterlimit="8" stroke-dasharray="110 82.5" fill="none" fill-rule="evenodd"/><path d="M0.39911-13.7442 22.3482-13.1068 44.4961-11.2174 66.2779-8.17176 87.537-4.05109 108.117 1.06657 112.555 2.42423 104.511 28.7215 100.422 27.4707 101.126 27.6657 81.2494 22.7229 81.9511 22.878 61.3996 18.8945 62.112 19.0133 41.0545 16.0689 41.7897 16.1516 20.3948 14.3264 21.1645 14.3704-0.39911 13.7442ZM191.409 36.6139 195.45 39.1955 202.312 43.9984 208.759 48.9683 214.772 54.1077 220.33 59.4217 225.408 64.9185 229.979 70.6089 234.007 76.5055 237.448 82.6203 240.247 88.9596 242.337 95.5172 243.643 102.266 244.07 108.818 243.868 119.855 243.29 130.587 242.209 140.873 214.859 137.998 215.904 128.06 215.848 128.758 216.395 118.62 216.377 119.107 216.564 108.889 216.591 110.036 216.257 104.922 216.479 106.638 215.491 101.534 215.89 103.097 214.27 98.0122 214.792 99.3913 212.56 94.337 213.156 95.527 210.334 90.5126 210.963 91.5249 207.572 86.5605 208.206 87.4153 204.266 82.5109 204.887 83.231 200.42 78.3964 201.017 79.0038 196.045 74.2492 196.613 74.7634 191.156 70.0987 191.694 70.5363 185.773 65.9715 186.283 66.3462 179.918 61.8914 180.401 62.2143 176.605 59.7891ZM210.109 228.049 205.782 230.653 200.414 231.752 198.91 232.063 203.31 230.321 201.783 231.257 204.366 229.211 202.845 230.746 204.262 229.067 202.75 231.182 203.557 229.911 202.056 232.586 202.546 231.627 201.061 234.841 201.376 234.102 199.909 237.836 200.123 237.252 198.676 241.486 198.828 241.013 197.406 245.726 197.518 245.335 196.122 250.507 196.207 250.177 194.841 255.789 194.907 255.504 193.574 261.536 193.627 261.288 192.33 267.719 192.372 267.499 191.114 274.31 191.164 274.02 188.777 288.701 188.827 288.369 186.63 304.329 186.667 304.039 185.023 318.215 157.706 315.047 159.367 300.725 161.606 284.453 164.045 269.46 165.35 262.393 166.695 255.727 168.086 249.428 169.527 243.508 171.02 237.974 172.573 232.829 174.201 228.066 175.929 223.669 177.809 219.601 179.941 215.8 182.533 212.175 185.999 208.677 190.989 205.619 194.897 204.811 197.955 204.185 193.625 205.873 195.932 204.485ZM179.396 399.283 179.115 409.71 151.625 408.97 151.906 398.542ZM226.394 334.591 164.999 436.626 106.401 332.96C102.664 326.349 104.994 317.96 111.605 314.223 118.216 310.487 126.604 312.816 130.341 319.427L177.34 402.574 153.588 402.251 202.83 320.413C206.746 313.906 215.194 311.805 221.701 315.72 228.208 319.635 230.309 328.084 226.394 334.591Z" transform="matrix(-1 0 0 1 1320 1158)"/></g></svg>