<svg width="96" height="96" xmlns="http://www.w3.org/2000/svg" xmlns:xlink="http://www.w3.org/1999/xlink" xml:space="preserve" overflow="hidden"><g transform="translate(-592 -312)"><path d="M666.8 333.8C664.4 333.8 662.4 331.8 662.4 329.4 662.4 327 664.4 325 666.8 325 669.2 325 671.2 327 671.2 329.4L671.2 329.4C671.2 331.8 669.2 333.8 666.8 333.8 666.8 333.8 666.8 333.8 666.8 333.8ZM666.8 319C663.4 319 660.2 320.7 658.3 323.5 656.4 326.3 656 329.9 657.2 333.1L661.9 343.4 665.9 351.9C666.2 352.4 666.8 352.6 667.2 352.3 667.4 352.2 667.5 352.1 667.6 351.9L671.6 343.4 676.3 333.1C677.5 329.9 677.1 326.3 675.2 323.5 673.4 320.7 670.2 319 666.8 319Z"/><path d="M615.8 373.8C612.8 373.8 610.3 371.3 610.3 368.3 610.3 365.3 612.8 362.8 615.8 362.8 618.8 362.8 621.3 365.3 621.3 368.3 621.3 368.3 621.3 368.3 621.3 368.3 621.3 371.3 618.8 373.8 615.8 373.8 615.8 373.8 615.8 373.8 615.8 373.8L615.8 373.8ZM615.8 355.5C611.6 355.5 607.6 357.6 605.2 361.1 602.8 364.6 602.3 369.1 603.9 373L609.7 385.8 614.7 396.3C615 396.9 615.8 397.1 616.4 396.8 616.6 396.7 616.8 396.5 616.9 396.3L621.9 385.8 627.7 373C629.2 369.1 628.7 364.6 626.4 361.1 624 357.6 620 355.5 615.8 355.5L615.8 355.5Z"/><path d="M629.8 397 627.2 397C626 397 624.9 397 623.8 397L623.8 391C624.8 391 626 391 627.2 391L629.8 391 629.8 397Z"/><path d="M633.9 397 633.9 391C636.1 391 638 391 639.8 390.9L640 396.9C638.1 397 636.1 397 633.9 397Z"/><path d="M644 396.7 643.7 390.7C645.8 390.6 647.8 390.5 649.5 390.3L650.1 396.3C648.3 396.5 646.2 396.6 644 396.7L644 396.7Z"/><path d="M654.3 395.8 653.4 389.9C655.3 389.6 657.1 389.3 658.9 388.8L660.5 394.6C658.4 395.1 656.4 395.5 654.3 395.8Z"/><path d="M664.7 393.1 662.3 387.6C663.6 387.2 664.7 386.3 665.5 385.2L670.8 388.1C669.3 390.4 667.2 392.1 664.7 393.1L664.7 393.1Z"/><path d="M665.6 383.2C665.4 381.9 664.8 380.6 663.9 379.7L668.1 375.5C670 377.4 671.2 379.8 671.5 382.5L665.6 383.2Z"/><path d="M661.4 377.9C659.8 377.1 658.1 376.4 656.4 375.9L658.1 370.2C660.2 370.8 662.3 371.6 664.2 372.6L661.4 377.9Z"/><path d="M652.6 374.9 651 374.5C649.6 374.1 648.1 373.8 646.7 373.4L648.3 367.6C649.6 368 651 368.3 652.4 368.7L654 369.1 652.6 374.9Z"/><path d="M642.6 372C640.2 371.1 638 369.6 636.4 367.6L641.3 364.2C642.2 365.3 643.5 366.1 644.8 366.5L642.6 372Z"/><path d="M640.9 362.2 634.9 361.8C635.1 358.9 636.7 356.3 639 354.6L642.7 359.3C640.9 360.8 640.9 361.9 640.9 362.2L640.9 362.2Z"/><path d="M645.5 357.8 643.1 352.3C645.1 351.4 647.2 350.7 649.3 350.2L650.7 356C648.9 356.5 647.2 357.1 645.5 357.8L645.5 357.8Z"/><path d="M654.4 355.3 653.4 349.4C656 349 658.2 348.7 659.6 348.6L660.1 354.6C659.1 354.7 656.9 354.9 654.4 355.3L654.4 355.3Z"/></g></svg>