<svg width="96" height="96" xmlns="http://www.w3.org/2000/svg" xmlns:xlink="http://www.w3.org/1999/xlink" xml:space="preserve" overflow="hidden"><defs><clipPath id="clip0"><rect x="592" y="312" width="96" height="96"/></clipPath></defs><g clip-path="url(#clip0)" transform="translate(-592 -312)"><path d="M602 346 609 346 609 350 602 350Z"/><path d="M602 338 609 338 609 342 602 342Z"/><path d="M602 354 609 354 609 358 602 358Z"/><path d="M602 378 609 378 609 382 602 382Z"/><path d="M602 370 609 370 609 374 602 374Z"/><path d="M602 362 609 362 609 366 602 366Z"/><path d="M671 370 678 370 678 374 671 374Z"/><path d="M671 378 678 378 678 382 671 382Z"/><path d="M671 362 678 362 678 366 671 366Z"/><path d="M671 338 678 338 678 342 671 342Z"/><path d="M671 354 678 354 678 358 671 358Z"/><path d="M671 346 678 346 678 350 671 350Z"/><path d="M642 322 646 322 646 329 642 329Z"/><path d="M658 322 662 322 662 329 658 329Z"/><path d="M650 322 654 322 654 329 650 329Z"/><path d="M634 322 638 322 638 329 634 329Z"/><path d="M618 322 622 322 622 329 618 329Z"/><path d="M626 322 630 322 630 329 626 329Z"/><path d="M626 391 630 391 630 398 626 398Z"/><path d="M618 391 622 391 622 398 618 398Z"/><path d="M634 391 638 391 638 398 634 398Z"/><path d="M642 391 646 391 646 398 642 398Z"/><path d="M650 391 654 391 654 398 650 398Z"/><path d="M658 391 662 391 662 398 658 398Z"/><path d="M627 347 653 347 653 373 627 373Z"/><path d="M663 333 617 333C614.791 333 613 334.791 613 337L613 383C613 385.209 614.791 387 617 387L663 387C665.209 387 667 385.209 667 383L667 337C667 334.791 665.209 333 663 333ZM657 377 623 377 623 343 657 343Z"/></g></svg>