<svg width="96" height="96" xmlns="http://www.w3.org/2000/svg" xmlns:xlink="http://www.w3.org/1999/xlink" xml:space="preserve" overflow="hidden"><defs><clipPath id="clip0"><rect x="592" y="312" width="96" height="96"/></clipPath></defs><g clip-path="url(#clip0)" transform="translate(-592 -312)"><path d="M623 377 657 377 657 343 623 343ZM625 345 655 345 655 375 625 375Z"/><path d="M676 341 676 339 667 339 667 338C666.997 335.24 664.76 333.003 662 333L661 333 661 324 659 324 659 333 653 333 653 324 651 324 651 333 645 333 645 324 643 324 643 333 637 333 637 324 635 324 635 333 629 333 629 324 627 324 627 333 621 333 621 324 619 324 619 333 618 333C615.24 333.003 613.003 335.24 613 338L613 339 604 339 604 341 613 341 613 347 604 347 604 349 613 349 613 355 604 355 604 357 613 357 613 363 604 363 604 365 613 365 613 371 604 371 604 373 613 373 613 379 604 379 604 381 613 381 613 382C613.003 384.76 615.24 386.997 618 387L619 387 619 396 621 396 621 387 627 387 627 396 629 396 629 387 635 387 635 396 637 396 637 387 643 387 643 396 645 396 645 387 651 387 651 396 653 396 653 387 659 387 659 396 661 396 661 387 662 387C664.76 386.997 666.997 384.76 667 382L667 381 676 381 676 379 667 379 667 373 676 373 676 371 667 371 667 365 676 365 676 363 667 363 667 357 676 357 676 355 667 355 667 349 676 349 676 347 667 347 667 341ZM665 382C665 383.657 663.657 385 662 385L618 385C616.343 385 615 383.657 615 382L615 338C615 336.343 616.343 335 618 335L662 335C663.657 335 665 336.343 665 338Z"/></g></svg>