<svg width="96" height="96" xmlns="http://www.w3.org/2000/svg" xmlns:xlink="http://www.w3.org/1999/xlink" xml:space="preserve" overflow="hidden"><defs><clipPath id="clip0"><rect x="502" y="22" width="96" height="96"/></clipPath></defs><g clip-path="url(#clip0)" transform="translate(-502 -22)"><path d="M533 87 567 87 567 53 533 53ZM535 55 565 55 565 85 535 85Z" fill="#FFFFFF"/><path d="M586 51 586 49 577 49 577 48C576.997 45.2399 574.76 43.0033 572 43L571 43 571 34 569 34 569 43 563 43 563 34 561 34 561 43 555 43 555 34 553 34 553 43 547 43 547 34 545 34 545 43 539 43 539 34 537 34 537 43 531 43 531 34 529 34 529 43 528 43C525.24 43.0033 523.003 45.2399 523 48L523 49 514 49 514 51 523 51 523 57 514 57 514 59 523 59 523 65 514 65 514 67 523 67 523 73 514 73 514 75 523 75 523 81 514 81 514 83 523 83 523 89 514 89 514 91 523 91 523 92C523.003 94.7601 525.24 96.9967 528 97L529 97 529 106 531 106 531 97 537 97 537 106 539 106 539 97 545 97 545 106 547 106 547 97 553 97 553 106 555 106 555 97 561 97 561 106 563 106 563 97 569 97 569 106 571 106 571 97 572 97C574.76 96.9967 576.997 94.7601 577 92L577 91 586 91 586 89 577 89 577 83 586 83 586 81 577 81 577 75 586 75 586 73 577 73 577 67 586 67 586 65 577 65 577 59 586 59 586 57 577 57 577 51ZM575 92C575 93.6569 573.657 95 572 95L528 95C526.343 95 525 93.6569 525 92L525 48C525 46.3431 526.343 45 528 45L572 45C573.657 45 575 46.3431 575 48Z" fill="#FFFFFF"/></g></svg>