<svg width="96" height="96" xmlns="http://www.w3.org/2000/svg" xmlns:xlink="http://www.w3.org/1999/xlink" xml:space="preserve" overflow="hidden"><defs><clipPath id="clip0"><rect x="592" y="312" width="96" height="96"/></clipPath></defs><g clip-path="url(#clip0)" transform="translate(-592 -312)"><path d="M675.29 323.436C672.117 318.731 665.731 317.489 661.026 320.662 659.931 321.4 658.989 322.342 658.251 323.436 656.334 326.265 655.929 329.855 657.168 333.039L661.846 343.381 665.884 351.851C666.135 352.34 666.735 352.534 667.225 352.283 667.411 352.188 667.562 352.036 667.657 351.851L671.695 343.381 676.373 333.039C677.612 329.855 677.207 326.265 675.29 323.436ZM674.526 332.27 669.89 342.52 666.78 349.044C666.775 349.054 666.767 349.054 666.762 349.044L663.668 342.556 659.015 332.27C658.034 329.706 658.368 326.824 659.911 324.552 662.467 320.764 667.611 319.765 671.399 322.322 672.284 322.918 673.044 323.68 673.639 324.566 675.175 326.835 675.506 329.711 674.526 332.27Z" stroke="#00CC99" fill="#00CC99"/><path d="M605.216 361.006C602.84 364.51 602.339 368.957 603.873 372.903L609.669 385.715 614.672 396.208C614.983 396.815 615.727 397.055 616.333 396.744 616.563 396.626 616.75 396.439 616.869 396.208L621.871 385.715 627.667 372.903C629.202 368.957 628.7 364.51 626.325 361.006 622.395 355.177 614.483 353.637 608.654 357.568 607.297 358.482 606.13 359.65 605.216 361.006ZM624.674 362.135C626.669 365.08 627.096 368.814 625.82 372.133L620.066 384.854 615.779 393.845C615.774 393.855 615.766 393.855 615.761 393.845L611.491 384.89 605.72 372.133C604.443 368.808 604.875 365.069 606.875 362.122 610.189 357.209 616.858 355.913 621.771 359.228 622.917 360.001 623.903 360.988 624.674 362.135Z" stroke="#00CC99" fill="#00CC99"/><path d="M635.863 394.888C636.853 394.877 637.86 394.86 638.878 394.836L638.83 392.836C637.821 392.86 636.822 392.877 635.839 392.888Z" stroke="#00CC99" fill="#00CC99"/><path d="M643.821 356.313 642.924 354.525C641.968 354.996 641.058 355.558 640.21 356.204L641.436 357.785C642.182 357.219 642.98 356.726 643.821 356.313Z" stroke="#00CC99" fill="#00CC99"/><path d="M639.625 359.701 637.937 358.63C637.303 359.612 636.932 360.739 636.859 361.905L638.855 362.025C638.906 361.197 639.171 360.396 639.625 359.701Z" stroke="#00CC99" fill="#00CC99"/><path d="M632.846 392.909 631.832 392.91 629.851 392.906 629.843 394.906 631.832 394.91 632.85 394.909 632.846 392.909Z" stroke="#00CC99" fill="#00CC99"/><path d="M651.65 370.409C650.67 370.163 649.7 369.918 648.757 369.662L648.234 371.593C649.19 371.851 650.171 372.1 651.163 372.349Z" stroke="#00CC99" fill="#00CC99"/><path d="M623.847 392.88 623.847 394.88C624.763 394.88 625.767 394.885 626.841 394.891L626.852 392.891C625.774 392.885 624.767 392.88 623.847 392.88Z" stroke="#00CC99" fill="#00CC99"/><path d="M639.628 367.926 640.881 366.367C640.209 365.854 639.666 365.193 639.292 364.434L637.482 365.286C637.987 366.318 638.721 367.221 639.628 367.926Z" stroke="#00CC99" fill="#00CC99"/><path d="M651.725 351.674 652.132 353.632C653.064 353.439 654.044 353.261 655.043 353.103L654.731 351.127C653.7 351.29 652.688 351.474 651.725 351.674Z" stroke="#00CC99" fill="#00CC99"/><path d="M657.757 350.717 657.982 352.705C659.715 352.508 660.852 352.445 660.9 352.443L660.792 350.445C660.667 350.452 659.517 350.517 657.757 350.717Z" stroke="#00CC99" fill="#00CC99"/><path d="M669.694 384.092C669.698 383.218 669.601 382.348 669.406 381.496L667.459 381.952C667.619 382.653 667.698 383.37 667.694 384.089 667.694 384.251 667.685 384.412 667.667 384.573L669.655 384.794C669.681 384.561 669.694 384.326 669.694 384.092Z" stroke="#00CC99" fill="#00CC99"/><path d="M659.444 390.588 659.967 392.518C660.968 392.251 661.955 391.932 662.922 391.561L662.198 389.696C661.296 390.042 660.377 390.339 659.444 390.588Z" stroke="#00CC99" fill="#00CC99"/><path d="M664.731 388.469 665.78 390.172C666.74 389.603 667.593 388.872 668.303 388.011L666.738 386.766C666.172 387.445 665.493 388.021 664.731 388.469Z" stroke="#00CC99" fill="#00CC99"/><path d="M660.417 372.962 659.699 374.829C660.597 375.168 661.472 375.563 662.32 376.012L663.264 374.249C662.343 373.761 661.392 373.331 660.417 372.962Z" stroke="#00CC99" fill="#00CC99"/><path d="M665.926 376.014 664.646 377.551C665.34 378.119 665.944 378.789 666.437 379.537L668.117 378.452C667.514 377.534 666.776 376.712 665.926 376.014Z" stroke="#00CC99" fill="#00CC99"/><path d="M653.676 391.745 653.966 393.724C655.019 393.569 656.031 393.397 656.975 393.211L656.588 391.248C655.676 391.428 654.696 391.595 653.676 391.745Z" stroke="#00CC99" fill="#00CC99"/><path d="M642.394 369.595C643.34 370.028 644.31 370.405 645.3 370.725L645.927 368.826C645.011 368.53 644.113 368.182 643.237 367.782Z" stroke="#00CC99" fill="#00CC99"/><path d="M644.914 394.597 644.798 392.6C643.806 392.657 642.81 392.704 641.817 392.743L641.896 394.741C642.9 394.703 643.909 394.655 644.914 394.597Z" stroke="#00CC99" fill="#00CC99"/><path d="M645.798 353.305 646.476 355.187C647.336 354.877 648.275 354.583 649.267 354.314L648.743 352.384C647.699 352.667 646.708 352.977 645.798 353.305Z" stroke="#00CC99" fill="#00CC99"/><path d="M647.933 394.391C648.951 394.309 649.959 394.215 650.951 394.107L650.734 392.118C649.761 392.225 648.771 392.317 647.773 392.397Z" stroke="#00CC99" fill="#00CC99"/><path d="M654.573 371.152 654.066 373.087C655.029 373.339 655.987 373.602 656.924 373.887L657.504 371.973C656.544 371.681 655.56 371.411 654.573 371.152Z" stroke="#00CC99" fill="#00CC99"/><path d="M666.77 324.815C664.322 324.815 662.338 326.8 662.338 329.247 662.338 331.695 664.323 333.679 666.77 333.679 669.218 333.679 671.202 331.695 671.202 329.247 671.212 326.81 669.245 324.826 666.807 324.815 666.795 324.815 666.782 324.815 666.77 324.815ZM666.77 331.679C665.427 331.679 664.338 330.59 664.338 329.247 664.338 327.904 665.427 326.815 666.77 326.815 668.113 326.815 669.202 327.904 669.202 329.247 669.216 330.576 668.151 331.665 666.822 331.679 666.805 331.68 666.787 331.68 666.77 331.679Z" stroke="#00CC99" fill="#00CC99"/><path d="M610.279 368.205C610.279 371.237 612.738 373.696 615.77 373.696 618.803 373.696 621.261 371.238 621.261 368.205 621.261 365.172 618.803 362.714 615.771 362.714 615.77 362.714 615.77 362.714 615.77 362.714 612.75 362.702 610.292 365.139 610.279 368.159 610.279 368.174 610.279 368.19 610.279 368.205ZM619.261 368.205C619.261 370.133 617.698 371.696 615.771 371.696 613.843 371.696 612.279 370.133 612.279 368.205 612.279 366.277 613.842 364.714 615.77 364.714 615.77 364.714 615.77 364.714 615.77 364.714 617.678 364.693 619.241 366.223 619.261 368.13 619.262 368.155 619.262 368.18 619.261 368.205Z" stroke="#00CC99" fill="#00CC99"/></g></svg>